Coordinates
version=1
nRows=60
nColumns=12
inDegrees=yes

Units are S.I. units (second, meters, Newtons, ...)
Angles are in degrees

endheader
time	SC_y	SC_z	SC_x	AC_y	AC_z	AC_x	GH_y	GH_z	GH_yy	EL_x	PS_y
       0.0              -31.31          13.98          7.912          68.57         -5.773         -16.32         -170.3         -10.06         -38.72          123.3          37.63
   0.02612              -31.31          13.98          7.918          68.56         -5.772         -16.32         -170.3         -10.04         -38.74          123.3          37.64
   0.05225              -31.31          13.98          7.923          68.56         -5.771         -16.32         -170.3         -10.03         -38.76          123.3          37.65
   0.07837              -31.31          13.98          7.929          68.56          -5.77         -16.32         -170.2         -10.02         -38.77          123.3          37.66
    0.1045              -31.31          13.98          7.936          68.55         -5.768         -16.32         -170.2         -10.01         -38.79          123.3          37.67
    0.1306              -31.32          13.98          7.943          68.55         -5.767         -16.32         -170.1         -9.993         -38.82          123.3          37.69
    0.1567              -31.32          13.99           7.95          68.54         -5.765         -16.32         -170.1         -9.978         -38.84          123.3           37.7
    0.1829              -31.32          13.99          7.958          68.54         -5.764         -16.32         -170.0         -9.961         -38.86          123.3          37.72
     0.209              -31.32          13.99          7.966          68.53         -5.762         -16.31         -170.0         -9.944         -38.89          123.3          37.73
    0.2351              -31.32          13.99          7.975          68.52          -5.76         -16.31         -169.9         -9.925         -38.92          123.3          37.75
    0.2612              -31.32           14.0          7.985          68.52         -5.758         -16.31         -169.9         -9.905         -38.95          123.3          37.77
    0.2874              -31.32           14.0          7.995          68.51         -5.756         -16.31         -169.8         -9.884         -38.98          123.3          37.79
    0.3135              -31.32           14.0          8.006           68.5         -5.754         -16.31         -169.7         -9.861         -39.01          123.3          37.81
    0.3396              -31.32          14.01          8.018          68.49         -5.751         -16.31         -169.6         -9.836         -39.05          123.3          37.83
    0.3657              -31.32          14.01          8.031          68.48         -5.748          -16.3         -169.6         -9.809         -39.09          123.3          37.86
    0.3919              -31.32          14.01          8.045          68.47         -5.745          -16.3         -169.5         -9.779         -39.13          123.2          37.88
     0.418              -31.32          14.02          8.061          68.46         -5.742          -16.3         -169.4         -9.747         -39.18          123.2          37.91
    0.4441              -31.32          14.02          8.078          68.45         -5.739         -16.29         -169.2         -9.713         -39.23          123.2          37.95
    0.4702              -31.32          14.03          8.096          68.43         -5.735         -16.29         -169.1         -9.675         -39.29          123.2          37.98
    0.4963              -31.32          14.04          8.116          68.42         -5.731         -16.29         -169.0         -9.633         -39.35          123.2          38.02
    0.5225              -31.32          14.04          8.138           68.4         -5.726         -16.28         -168.9         -9.587         -39.42          123.2          38.06
    0.5486              -31.32          14.05          8.162          68.39         -5.721         -16.28         -168.7         -9.537          -39.5          123.2          38.11
    0.5747              -31.32          14.06          8.189          68.37         -5.715         -16.27         -168.5         -9.482         -39.58          123.2          38.16
    0.6008              -31.32          14.07          8.219          68.34         -5.709         -16.27         -168.3          -9.42         -39.67          123.2          38.22
     0.627              -31.33          14.08          8.252          68.32         -5.702         -16.26         -168.1         -9.352         -39.77          123.2          38.28
    0.6531              -31.33          14.09          8.289          68.29         -5.695         -16.26         -167.9         -9.275         -39.89          123.2          38.35
    0.6792              -31.33           14.1           8.33          68.26         -5.686         -16.25         -167.6          -9.19         -40.02          123.1          38.43
    0.7053              -31.33          14.11          8.376          68.23         -5.676         -16.24         -167.3         -9.094         -40.16          123.1          38.52
    0.7315              -31.33          14.13          8.429          68.19         -5.665         -16.23         -166.9         -8.985         -40.32          123.1          38.62
    0.7576              -31.33          14.15          8.488          68.15         -5.653         -16.22         -166.6         -8.862         -40.51          123.1          38.74
    0.7837              -31.34          14.17          8.556           68.1         -5.639         -16.21         -166.1         -8.721         -40.72          123.0          38.87
    0.8098              -31.34          14.19          8.634          68.04         -5.622         -16.19         -165.6         -8.559         -40.96          123.0          39.02
     0.836              -31.34          14.22          8.724          67.98         -5.603         -16.18         -165.0         -8.373         -41.24          123.0          39.19
    0.8621              -31.35          14.25          8.828           67.9         -5.581         -16.16         -164.3         -8.156         -41.56          122.9          39.39
    0.8882              -31.35          14.28          8.951          67.81         -5.556         -16.14         -163.5         -7.903         -41.94          122.9          39.63
    0.9143              -31.36          14.33          9.095           67.7         -5.526         -16.11         -162.6         -7.604         -42.39          122.8           39.9
    0.9404              -31.36          14.38          9.266          67.58          -5.49         -16.08         -161.5         -7.248         -42.92          122.8          40.23
    0.9666              -31.37          14.44          9.472          67.43         -5.447         -16.04         -160.1         -6.822         -43.55          122.7          40.63
    0.9927              -31.38          14.51           9.72          67.25         -5.395          -16.0         -158.5         -6.307         -44.32          122.6          41.11
     1.019              -31.39           14.6          10.02          67.03         -5.331         -15.94         -156.5         -5.678         -45.27          122.5          41.69
     1.045               -31.4          14.71           10.4          66.75         -5.253         -15.88         -154.0         -4.901         -46.43          122.3          42.41
     1.071              -31.42          14.85          10.87          66.41         -5.155         -15.79         -151.0         -3.932         -47.87          122.1          43.31
     1.097              -31.44          15.03          11.45          65.98         -5.031         -15.69         -147.1         -2.712          -49.7          121.9          44.44
     1.123              -31.46          15.25           12.2          65.43         -4.875         -15.55         -142.2         -1.161         -52.02          121.6          45.88
     1.149               -31.5          15.53          13.16          64.73         -4.674         -15.38         -135.9         0.8247         -54.99          121.2          47.72
     1.176              -31.54           15.9          14.39          63.83         -4.417         -15.16         -127.9          3.373         -58.79          120.7          50.09
     1.202              -31.59          16.37          15.96          62.69         -4.088         -14.87         -117.6          6.627         -63.66          120.1           53.1
     1.228              -31.66          16.95          17.93          61.24         -3.674         -14.52         -104.6          10.72         -69.78          119.3           56.9
     1.254              -31.74          17.67          20.34          59.49         -3.171         -14.08         -88.87          15.71         -77.23          118.3          61.53
      1.28              -31.84          18.49          23.13          57.45         -2.586         -13.58         -70.59          21.49         -85.87          117.2          66.89
     1.306              -31.95          19.39          26.15          55.24         -1.954         -13.04          -50.8          27.75         -95.23          116.0           72.7
     1.332              -32.05          20.29          29.17          53.04         -1.322         -12.49         -31.01          34.01         -104.6          114.8           78.5
     1.358              -32.15          21.12          31.95           51.0        -0.7377         -11.99         -12.73          39.79         -113.2          113.6          83.86
     1.385              -32.23          21.83          34.36          49.24        -0.2338         -11.55          3.041          44.77         -120.7          112.7          88.49
     1.411               -32.3          22.42          36.33           47.8         0.1796          -11.2          15.98          48.87         -126.8          111.9          92.29
     1.437              -32.35          22.88           37.9          46.65         0.5085         -10.91          26.27          52.12         -131.7          111.3          95.31
     1.463               -32.4          23.25          39.13          45.75         0.7659         -10.69          34.33          54.67         -135.5          110.8          97.67
     1.489              -32.43          23.53          40.09          45.05         0.9665         -10.52          40.61          56.65         -138.4          110.4          99.51
     1.515              -32.46          23.75          40.84           44.5          1.123         -10.38          45.51          58.21         -140.8          110.1          101.0
     1.541              -32.48          23.93          41.43          44.07          1.246         -10.28          49.37          59.43         -142.6          109.8          102.1
